<?xml version="1.0" encoding="UTF-8"?>
<svg version="1.1" xmlns="http://www.w3.org/2000/svg" width="512" height="512">
<path d="M0 0 C0.73028805 -0.00297112 1.46057611 -0.00594224 2.2129941 -0.0090034 C4.64920999 -0.0176439 7.08537647 -0.01919472 9.52160645 -0.02069092 C11.27315373 -0.02532253 13.0247 -0.03034765 14.77624512 -0.03573608 C19.52874401 -0.04883238 24.28122879 -0.05530008 29.0337429 -0.05974674 C32.00785383 -0.06268303 34.98196095 -0.06678896 37.95606995 -0.07125092 C47.27539663 -0.08492094 56.59471456 -0.09458901 65.91405058 -0.09845281 C76.64500211 -0.10292709 87.37582587 -0.1204478 98.10673857 -0.1494534 C106.41784023 -0.17113231 114.72890611 -0.18116046 123.04003572 -0.18249393 C127.99577028 -0.18353787 132.95138464 -0.18935723 137.90708923 -0.20731354 C142.57584866 -0.22390104 147.24439893 -0.22589838 151.91317749 -0.21717453 C153.61661849 -0.21640973 155.32007123 -0.22067233 157.02348328 -0.23063278 C178.49764139 -0.34872581 197.08217042 4.161602 213.22668457 19.26544189 C224.96282709 31.70447498 232.14465848 46.8888919 232.53918457 64.14044189 C233.30359863 64.15462158 234.0680127 64.16880127 234.85559082 64.18341064 C248.6842783 64.79912838 260.41350647 68.93479226 271.53918457 77.14044189 C272.48664551 77.81333252 272.48664551 77.81333252 273.45324707 78.49981689 C286.88249003 88.9243434 294.31367728 105.67168797 296.53918457 122.14044189 C298.04838651 139.74779789 292.92922824 156.54273534 281.96887207 170.32403564 C275.97283568 177.27442509 269.81098363 182.33799331 261.66418457 186.51544189 C261.04084229 186.83738525 260.4175 187.15932861 259.77526855 187.49102783 C248.05306777 193.13776149 236.46316929 193.55900752 223.74230957 193.43341064 C222.05552552 193.42780233 220.36873652 193.42353809 218.6819458 193.42054749 C214.28265442 193.40919579 209.88366909 193.37981424 205.48449707 193.34643555 C200.97933083 193.31552374 196.47411422 193.30199743 191.96887207 193.28692627 C183.15883716 193.25493333 174.34904913 193.20385704 165.53918457 193.14044189 C165.34346863 193.88764496 165.14775269 194.63484802 164.94610596 195.4046936 C164.68388245 196.38918488 164.42165894 197.37367615 164.15148926 198.38800049 C163.76510284 199.84911758 163.76510284 199.84911758 163.37091064 201.3397522 C162.25935301 205.08272493 160.69181261 208.3703833 158.78918457 211.76544189 C158.43702881 212.40513916 158.08487305 213.04483643 157.7220459 213.70391846 C154.78171651 218.92970072 151.55666491 223.67300375 147.53918457 228.14044189 C146.75027832 229.02216064 145.96137207 229.90387939 145.14855957 230.81231689 C129.43979215 247.43972569 108.49173432 256.83627894 85.58044434 257.54278564 C60.24908629 257.8548496 38.34514237 248.99382561 20.16418457 231.32794189 C9.74462433 220.77547475 3.03971015 207.44626358 -0.46081543 193.14044189 C-1.37964005 193.14932434 -2.29846466 193.15820679 -3.24513245 193.1673584 C-11.96708164 193.24800032 -20.68890296 193.30865591 -29.4111414 193.34769058 C-33.89376484 193.36843437 -38.37607645 193.39650564 -42.85852051 193.44219971 C-47.19631893 193.48613505 -51.53382025 193.50967788 -55.87182426 193.51995087 C-57.51458847 193.52725776 -59.15733917 193.54152218 -60.79997444 193.56336212 C-80.90448545 193.81967281 -98.2663514 188.94563931 -113.14831543 174.67559814 C-125.74619521 160.86474683 -132.0193155 144.47844596 -131.71472168 125.79669189 C-130.71378524 111.38320722 -126.15190998 99.53014115 -117.46081543 88.14044189 C-116.69769043 87.10919189 -115.93456543 86.07794189 -115.14831543 85.01544189 C-102.10474229 71.06185203 -86.20096419 64.99226684 -67.46081543 64.14044189 C-67.44663574 63.52040283 -67.43245605 62.90036377 -67.41784668 62.26153564 C-66.45573456 44.39745391 -58.22624842 29.39688633 -45.46081543 17.14044189 C-32.17368307 6.05161986 -17.37995117 0.03965696 0 0 Z M-19.17175293 53.06622314 C-23.90778919 60.68693604 -23.89636998 67.21669314 -23.96081543 76.07794189 C-24.06879801 90.87926906 -24.06879801 90.87926906 -27.46081543 98.14044189 C-27.77019043 98.92419189 -28.07956543 99.70794189 -28.39831543 100.51544189 C-29.84027452 102.7207911 -30.99889685 103.16863193 -33.46081543 104.14044189 C-34.5204248 104.64575439 -35.58003418 105.15106689 -36.67175293 105.67169189 C-43.58921954 108.2631935 -51.19219201 107.58240251 -58.47937012 107.57623291 C-67.61124175 107.59291314 -74.33579663 107.71788707 -81.48425293 113.88653564 C-86.13083418 119.70147692 -87.96735153 124.03495339 -87.76550293 131.58184814 C-87.04238152 137.65421386 -84.4084498 141.68705483 -79.71081543 145.51544189 C-73.40168633 150.26054319 -65.71231295 150.4319917 -58.14245605 150.37994385 C-57.24705612 150.38195801 -56.35165619 150.38397217 -55.42912292 150.38604736 C-53.49817716 150.38957418 -51.5672198 150.38884901 -49.63627625 150.38427162 C-46.57525437 150.37864631 -43.51460687 150.38788892 -40.45361328 150.401474 C-31.75531251 150.4384734 -23.05714206 150.45713603 -14.35876465 150.44586182 C-9.02604739 150.43999942 -3.69386085 150.45832124 1.63874817 150.49175072 C3.66403215 150.49968335 5.6893743 150.49845687 7.71464539 150.48772621 C10.55062312 150.47334172 13.3849384 150.48972746 16.2208252 150.51275635 C17.46325737 150.49510475 17.46325737 150.49510475 18.73078918 150.47709656 C26.009457 150.59249333 30.87891355 153.41016374 35.91418457 158.57794189 C39.16191273 163.69935937 39.76768836 168.67945211 40.22668457 174.64044189 C41.40767115 185.92135137 45.9486592 195.82771906 54.50793457 203.53106689 C57.71714074 206.07374563 60.88553376 208.28193744 64.53918457 210.14044189 C65.15664551 210.46012939 65.77410645 210.77981689 66.41027832 211.10919189 C75.54092344 214.95367405 88.29301386 214.62393852 97.60168457 211.57794189 C108.83721182 206.67422786 117.74319614 197.55243765 122.55480957 186.33575439 C123.91429348 181.92282645 124.35273622 177.49882512 124.81091309 172.92828369 C125.56258087 165.86836906 127.08341861 159.99740289 132.53918457 155.20294189 C137.99638306 151.45111793 141.74232033 150.84904213 148.3717041 150.86920166 C149.26330734 150.86397491 150.15491058 150.85874817 151.0735321 150.85336304 C153.00889451 150.84312665 154.94428442 150.83734326 156.879673 150.83548164 C159.94932093 150.83181551 163.01864648 150.8150795 166.08822632 150.79472351 C174.81563296 150.7393516 183.54308799 150.70870721 192.27062988 150.68414307 C197.61161459 150.66820533 202.95237274 150.63791561 208.29323959 150.59937859 C210.3224432 150.5877772 212.35168746 150.58179866 214.38092422 150.58169746 C217.23095351 150.58150389 220.08036524 150.56312464 222.93029785 150.54107666 C223.7576796 150.54565384 224.58506134 150.55023102 225.43751526 150.5549469 C234.31417274 150.4466074 242.2286631 148.60487852 248.53918457 142.14044189 C252.50532967 136.53313331 253.31739888 130.88867169 252.53918457 124.14044189 C250.68407321 117.98281322 246.88189633 113.62819967 241.53918457 110.14044189 C237.51540044 108.20152233 234.21648287 107.87831164 229.76965332 107.83184814 C228.46834473 107.80671143 227.16703613 107.78157471 225.82629395 107.75567627 C223.77935006 107.72704597 221.73248228 107.70299529 219.6854248 107.68414307 C202.51235627 107.49556466 202.51235627 107.49556466 195.72668457 101.76544189 C190.80898531 95.86420278 189.43225728 91.56398047 189.39855957 83.97637939 C189.36955566 82.16846924 189.36955566 82.16846924 189.33996582 80.32403564 C189.30642625 77.80856818 189.28790705 75.29285032 189.28527832 72.77716064 C189.11290502 64.240146 187.90738023 57.1325572 182.13244629 50.53277588 C176.46892072 45.40320757 170.51363381 43.76688334 163.07632446 43.75276184 C161.99882032 43.74468353 161.99882032 43.74468353 160.89954841 43.73644203 C158.50988067 43.72221713 156.12077118 43.72925237 153.7310791 43.73638916 C152.01067665 43.73068267 150.29027798 43.72371733 148.56988525 43.71559143 C143.90863234 43.69767454 139.24756783 43.69882578 134.58629084 43.70453382 C130.6897795 43.70762815 126.79330422 43.7015304 122.89679801 43.69549507 C113.70122828 43.68145593 104.50575147 43.68300572 95.31018066 43.69439697 C85.83581385 43.70587453 76.36173024 43.69180722 66.88740075 43.6650005 C58.7419432 43.64281987 50.59657438 43.63621154 42.45108879 43.64207691 C37.59108376 43.6454424 32.7312602 43.64305866 27.87128067 43.62582588 C23.2992936 43.61032141 18.72772484 43.61435103 14.15575409 43.63313103 C12.48246972 43.6368074 10.80915411 43.63373631 9.13589859 43.62324524 C-2.11732452 43.55810253 -11.52281121 43.82934323 -19.17175293 53.06622314 Z " fill="#323232" transform="translate(173.4608154296875,41.85955810546875)"/>
<path d="M0 0 C1.19367188 -0.01675781 2.38734375 -0.03351563 3.6171875 -0.05078125 C9.96570516 0.6066933 14.06990363 3.5104122 18.125 8.3125 C22.35636293 14.61076739 22.6879013 20.32270197 22.60742188 27.75463867 C22.61133438 28.87609283 22.61524689 29.997547 22.61927795 31.15298462 C22.62523693 33.57828906 22.62211202 36.00362939 22.6108551 38.42891502 C22.59354091 42.27693883 22.60113164 46.12421474 22.6151123 49.97224426 C22.64257158 58.84030605 22.63346037 67.70819518 22.62241364 76.57627869 C22.61192457 85.34610386 22.61727792 94.11551658 22.64906311 102.88530922 C22.65611679 106.65919951 22.63952737 110.4325008 22.62194824 114.2063446 C22.62316935 128.86558891 22.76139089 141.30563208 31.85546875 153.5078125 C33.125 155.3125 33.125 155.3125 34.125 158.3125 C35.43752882 159.01924629 36.77778717 159.67434656 38.125 160.3125 C39.115 161.09625 40.105 161.88 41.125 162.6875 C52.60731864 170.78279607 65.82387539 169.88500257 79.2265625 169.83007812 C81.4551438 169.8355054 83.6837215 169.84263144 85.91229248 169.85131836 C91.93707912 169.86948246 97.96159036 169.86251266 103.98638153 169.84980202 C110.30684625 169.83963851 116.62728821 169.84907698 122.94775391 169.85534668 C134.23833954 169.86307809 145.52878602 169.85068773 156.81934381 169.83030933 C167.03522321 169.81244079 177.25092075 169.81554567 187.46679688 169.83398438 C199.35938209 169.85543964 211.25185704 169.8633324 223.14446831 169.85153532 C229.4291406 169.84531579 235.7136879 169.84442237 241.99835205 169.85768127 C247.9082606 169.86927978 253.81782744 169.8611408 259.72769928 169.83810425 C261.88994023 169.83283853 264.05221019 169.83429405 266.21443939 169.84315491 C286.22557726 169.92751276 286.22557726 169.92751276 303.50390625 160.58203125 C305.125 159.3125 305.125 159.3125 308.125 158.3125 C309.18941643 156.49216048 309.18941643 156.49216048 310.125 154.3125 C311.59872109 152.00955423 313.08478742 149.71619837 314.58984375 147.43359375 C318.54856947 139.38519209 319.56605712 131.23428157 319.49389648 122.3684082 C319.49766296 121.3360202 319.50142944 120.3036322 319.50531006 119.23995972 C319.51170006 117.01932491 319.51145283 114.79866271 319.50512505 112.57802773 C319.49595186 109.05884827 319.50630829 105.54019442 319.52174377 102.02104187 C319.561682 92.02306844 319.56304239 82.02513961 319.56079102 72.02709961 C319.56073987 65.89350102 319.57992212 59.76018895 319.61012459 53.62666893 C319.62092361 50.1677774 319.60883832 46.70943814 319.59629822 43.25056458 C319.60520376 41.12317361 319.61527853 38.9957871 319.62670898 36.8684082 C319.61696548 35.91392288 319.60722198 34.95943756 319.59718323 33.97602844 C319.6789631 26.3301697 321.48910228 21.00830449 326.875 15.5 C332.8129721 11.50328801 338.83667065 9.10464128 346.125 10.3125 C353.59661694 12.45088441 358.29555113 16.46342877 362.18274879 23.12525558 C363.25768057 25.62049095 363.38149458 27.37964019 363.39242554 30.08966064 C363.40522049 31.5272876 363.40522049 31.5272876 363.41827393 32.99395752 C363.41736755 34.03912537 363.41646118 35.08429321 363.41552734 36.16113281 C363.42224457 37.26743042 363.42896179 38.37372803 363.43588257 39.5135498 C363.45491787 43.18095367 363.45879086 46.84817475 363.4609375 50.515625 C363.46736611 53.07232742 363.47409452 55.6290291 363.48110962 58.18572998 C363.49309943 63.55580646 363.49687484 68.92581512 363.49560547 74.29589844 C363.49441035 80.46469542 363.51538412 86.63313895 363.5470928 92.80184674 C363.57664186 98.76694216 363.58357461 104.73193245 363.58238602 110.69710541 C363.58473081 113.21820255 363.5934903 115.73930288 363.60905075 118.26035309 C363.71021041 136.35824526 362.74870264 152.00717989 354.125 168.3125 C353.63386719 169.27542969 353.14273437 170.23835937 352.63671875 171.23046875 C342.40488414 190.10686053 324.52160606 204.24010157 304.05078125 210.6640625 C294.57626922 213.38015872 285.43050149 214.46291475 275.62159729 214.45294189 C274.69570657 214.45591302 273.76981585 214.45888414 272.81586784 214.4619453 C269.72953084 214.47058047 266.64323286 214.47213615 263.55688477 214.47363281 C261.33700987 214.47826476 259.11713576 214.48328992 256.89726257 214.48867798 C250.87612602 214.50177005 244.85500061 214.50824102 238.83385205 214.51268864 C235.06604632 214.51562528 231.29824359 214.51973126 227.53043938 214.52419281 C217.07570462 214.53629674 206.62097165 214.54667974 196.1662302 214.5500679 C195.49817236 214.55028747 194.83011452 214.55050703 194.1418125 214.55073325 C193.1374717 214.55106067 193.1374717 214.55106067 192.11284119 214.5513947 C190.75629842 214.55183815 189.39975566 214.55228471 188.04321289 214.55273438 C187.37033601 214.5529558 186.69745913 214.55317723 186.00419205 214.55340537 C175.12005713 214.55734689 164.23598943 214.57478339 153.35188044 214.5980939 C142.14747325 214.62189437 130.94309044 214.63401654 119.73865551 214.63543582 C113.45991727 214.63648004 107.18127388 214.64230565 100.90255928 214.66025543 C94.98866038 214.67683367 89.07492662 214.67884459 83.16101265 214.67011642 C81.00247757 214.66935117 78.84393325 214.67362032 76.68542099 214.68357468 C48.10721996 214.80753188 23.80647141 209.12494485 2.65234375 188.96484375 C-10.77850645 174.86971657 -20.90890121 155.64886402 -21.02890015 135.82339478 C-21.04180084 134.22546837 -21.04180084 134.22546837 -21.05496216 132.59526062 C-21.05922211 131.44185684 -21.06348206 130.28845306 -21.06787109 129.10009766 C-21.07604858 127.87336838 -21.08422607 126.6466391 -21.09265137 125.38273621 C-21.11742761 121.33068155 -21.13415922 117.27866392 -21.1484375 113.2265625 C-21.15380194 111.82691823 -21.15917946 110.42727402 -21.16456985 109.02762985 C-21.1861729 103.20442154 -21.20490883 97.38121584 -21.21619225 91.55797768 C-21.23243307 83.23390967 -21.265643 74.91030812 -21.32259309 66.58641589 C-21.36135065 60.72040105 -21.38083144 54.85451073 -21.38611281 48.98837125 C-21.38975676 45.49031169 -21.40167581 41.99275127 -21.43421555 38.49483109 C-21.47001619 34.59097994 -21.4659105 30.68771098 -21.45849609 26.78369141 C-21.47490143 25.63433609 -21.49130676 24.48498077 -21.50820923 23.30079651 C-21.45420692 16.34852287 -20.46344836 11.66372248 -15.875 6.3125 C-10.73818103 1.55154583 -7.01294988 0.02262242 0 0 Z " fill="#323232" transform="translate(84.875,255.6875)"/>
<path d="M0 0 C4.80186406 4.09915224 8.2007013 8.19918188 8.96875 14.54296875 C9.14828537 21.88147701 9.04913551 27.46890436 4.28515625 33.44921875 C-0.92331943 38.70493684 -5.8074366 40.34954806 -13.1875 40.5 C-19.36817617 40.43005408 -22.68041166 40.15174028 -27.4375 36.1875 C-33.31346243 29.64076561 -34.82736933 24.74793698 -34.7109375 16.00390625 C-34.13472097 10.06887602 -31.52382396 5.9301632 -27.25 1.875 C-18.63619326 -4.80024302 -9.59884227 -5.06120774 0 0 Z " fill="#323232" transform="translate(183.4375,343.8125)"/>
<path d="M0 0 C4.87573687 4.14487693 7.01078212 8.84345212 7.97265625 15.109375 C8.3597862 22.13727247 6.69136951 27.72297986 2.5625 33.4375 C-2.56346524 38.31670104 -7.31300107 39.59884826 -14.25 39.6875 C-16.05404297 39.72617187 -16.05404297 39.72617187 -17.89453125 39.765625 C-22.5742412 39.33222298 -25.8027256 37.94302941 -29.265625 34.75390625 C-29.73484375 34.17511719 -30.2040625 33.59632813 -30.6875 33 C-31.40679687 32.13568359 -31.40679687 32.13568359 -32.140625 31.25390625 C-36.54610852 25.08357541 -36.07471562 18.8192705 -35.4375 11.4375 C-34.18157811 6.07665221 -31.55286125 3.22094028 -27.125 0.0625 C-18.08470976 -5.31757517 -9.02249445 -6.04305132 0 0 Z " fill="#323232" transform="translate(355.4375,344.5625)"/>
<path d="M0 0 C5.40064244 5.1658319 7.62667287 10.6400558 8.4375 17.9375 C8.17227988 23.56237669 6.13250716 28.67947597 2.31640625 32.83203125 C-4.10847582 38.51079798 -8.90519965 39.51296418 -17.51171875 39.37890625 C-23.86513022 38.68878205 -27.66524406 35.66047551 -31.875 31.0625 C-35.5907522 25.70744536 -36.90568411 20.4888254 -36 14 C-34.15925018 6.87949472 -31.27874893 1.94664219 -25 -2 C-16.80615703 -6.00587878 -7.54832308 -4.81299016 0 0 Z " fill="#323232" transform="translate(270,345)"/>
</svg>
